<svg id="Capa_1" data-name="Capa 1" xmlns="http://www.w3.org/2000/svg" viewBox="0 0 58 516"><defs><style>.cls-1,.cls-2{fill:none;}.cls-1{stroke:#393b4c;}.cls-1,.cls-2,.cls-3{stroke-miterlimit:10;stroke-width:3px;}.cls-2,.cls-3{stroke:#ff4a54;}.cls-3{fill:#ff4a54;}</style></defs><title>guia-3</title><line class="cls-1" x1="28.5" y1="459.51" x2="28.5" y2="285.49"/><line class="cls-1" x1="28.79" y1="230.47" x2="28.79" y2="56.45"/><path class="cls-2" d="M2141.5,729a27.5,27.5,0,0,1-27.5,27.5h-.5a27.5,27.5,0,1,1,28-27.49Z" transform="translate(-2085 -700)"/><path class="cls-2" d="M2141.5,958a27.5,27.5,0,0,1-27.5,27.5h-.5a27.49,27.49,0,0,1,0-55h.5A27.5,27.5,0,0,1,2141.5,958Z" transform="translate(-2085 -700)"/><path class="cls-3" d="M2141.5,1187a27.5,27.5,0,0,1-27.5,27.5h-.5a27.49,27.49,0,0,1,0-55h.5A27.5,27.5,0,0,1,2141.5,1187Z" transform="translate(-2085 -700)"/></svg>